<svg width="40" height="40" viewBox="0 0 40 40" fill="none" xmlns="http://www.w3.org/2000/svg">
<rect width="40" height="40" fill="#FAFAF9"/>
<path d="M14.1821 11.0522H16.5825V12.105H17.7827V14.2104H18.9829V17.3687H17.7827V19.4731H16.5825V20.5259H14.1821V21.5786H5.78076V29.9995H3.38037V10.0005H14.1821V11.0522ZM31.8188 11.0522H34.2192V12.105H35.4194V14.2104H36.6196V16.3159H34.2192V14.2104H33.019V13.1577H31.8188V12.105H24.6177V13.1577H23.4175V17.3687H24.6177V18.4214H29.4185V19.4731H33.019V20.5259H35.4194V22.6313H36.6196V26.8413H35.4194V28.9468H33.019V29.9995H24.6177V28.9468H22.2173V26.8413H21.0171V23.6841H23.4175V26.8413H24.6177V27.894H33.019V26.8413H34.2192V22.6313H31.8188V21.5786H28.2183V20.5259H24.6177V19.4731H22.2173V18.4214H21.0171V13.1577H22.2173V11.0522H24.6177V10.0005H31.8188V11.0522ZM5.78076 19.4731H14.1821V18.4214H15.3823V17.3687H16.5825V14.2104H15.3823V13.1577H14.1821V12.105H5.78076V19.4731Z" fill="#292524"/>
</svg>
