<svg width="115" height="18" viewBox="0 0 115 18" fill="none" xmlns="http://www.w3.org/2000/svg">
<path d="M1.52051 5.32031H2.28027V4.56055H3.04004V3.80078H6.84082V4.56055H7.60059V5.32031H8.36035V6.08008H9.12012V12.1602H8.36035V12.9209H7.60059V13.6807H6.84082V14.4404H3.04004V13.6807H2.28027V12.9209H6.08008V12.1602H6.84082V11.4004H7.60059V6.84082H6.84082V6.08008H6.08008V5.32031H2.28027V6.84082H1.52051V11.4004H2.28027V12.9209H1.52051V17.4805H0V3.80078H1.52051V5.32031ZM13.6865 3.80078H16.7266V5.32031H13.6865V12.9209H16.7266V14.4404H13.6865V13.6807H12.9268V12.9209H12.167V5.32031H10.6465V3.80078H12.167V1.52051H13.6865V3.80078ZM22.0439 5.32031H22.8047V6.08008H22.0439V12.9209H24.3242V14.4404H19.0039V12.9209H20.5244V5.32031H19.0039V3.80078H22.0439V5.32031ZM33.4434 4.56055H34.2041V5.32031H34.9639V6.08008H35.7236V7.60059H34.2041V6.84082H33.4434V6.08008H32.6836V5.32031H29.6436V6.08008H28.8838V6.84082H28.124V11.4004H28.8838V12.1602H29.6436V12.9209H32.6836V12.1602H33.4434V11.4004H34.2041V10.6406H35.7236V12.1602H34.9639V12.9209H34.2041V13.6807H33.4434V14.4404H28.8838V13.6807H28.124V12.9209H27.3633V11.4004H26.6035V6.84082H27.3633V5.32031H28.124V4.56055H28.8838V3.80078H33.4434V4.56055ZM39.5283 9.12012H40.2881V8.36035H41.0479V7.60059H41.8086V6.84082H42.5684V6.08008H43.3281V5.32031H44.0879V4.56055H44.8486V3.80078H46.3682V5.32031H45.6084V6.08008H44.8486V6.84082H44.0879V7.60059H43.3281V8.36035H42.5684V9.12012H43.3281V9.88086H44.0879V10.6406H44.8486V11.4004H45.6084V12.1602H46.3682V14.4404H44.8486V12.9209H44.0879V12.1602H43.3281V11.4004H42.5684V10.6406H41.8086V9.88086H41.0479V10.6406H40.2881V11.4004H39.5283V14.4404H38.0078V0H39.5283V9.12012ZM54.7324 4.56055H55.4932V5.32031H56.2529V6.84082H54.7324V5.32031H50.1729V6.08008H49.4131V7.60059H50.1729V8.36035H53.2129V9.12012H55.4932V9.88086H56.2529V12.9209H55.4932V13.6807H54.7324V14.4404H49.4131V13.6807H48.6523V12.9209H47.8926V11.4004H49.4131V12.1602H50.1729V12.9209H54.7324V10.6406H53.2129V9.88086H50.1729V9.12012H48.6523V7.60059H47.8926V6.08008H48.6523V4.56055H49.4131V3.80078H54.7324V4.56055ZM64.6152 4.56055H65.376V5.32031H66.1357V6.08008H66.8955V7.60059H65.376V6.84082H64.6152V6.08008H63.8555V5.32031H60.8154V6.08008H60.0557V6.84082H59.2959V11.4004H60.0557V12.1602H60.8154V12.9209H63.8555V12.1602H64.6152V11.4004H65.376V10.6406H66.8955V12.1602H66.1357V12.9209H65.376V13.6807H64.6152V14.4404H60.0557V13.6807H59.2959V12.9209H58.5352V11.4004H57.7754V6.84082H58.5352V5.32031H59.2959V4.56055H60.0557V3.80078H64.6152V4.56055ZM70.7002 5.32031H71.46V4.56055H72.2197V3.80078H76.0205V4.56055H76.7803V5.32031H77.54V14.4404H76.0205V6.08008H75.2598V5.32031H71.46V6.08008H70.7002V14.4404H69.1797V0H70.7002V5.32031ZM83.626 5.32031H84.3867V6.08008H83.626V12.9209H85.9062V14.4404H80.5859V12.9209H82.1064V5.32031H80.5859V3.80078H83.626V5.32031ZM97.3057 14.4404H95.7861V12.9209H95.0254V13.6807H94.2656V14.4404H90.4658V13.6807H89.7061V12.9209H88.9453V11.4004H88.1855V6.84082H88.9453V5.32031H89.7061V4.56055H90.4658V3.80078H94.2656V4.56055H95.0254V5.32031H91.2256V6.08008H90.4658V6.84082H89.7061V11.4004H90.4658V12.1602H91.2256V12.9209H95.0254V11.4004H95.7861V6.84082H95.0254V5.32031H95.7861V0H97.3057V14.4404ZM102.632 3.80078H105.672V5.32031H102.632V12.9209H105.672V14.4404H102.632V13.6807H101.872V12.9209H101.112V5.32031H99.5918V3.80078H101.112V1.52051H102.632V3.80078ZM110.989 5.32031H111.75V6.08008H110.989V12.9209H113.27V14.4404H107.949V12.9209H109.47V5.32031H107.949V3.80078H110.989V5.32031ZM25.8447 5.32031H22.8047V4.56055H23.5645V3.80078H25.8447V5.32031ZM87.4268 5.32031H84.3867V4.56055H85.1465V3.80078H87.4268V5.32031ZM114.79 5.32031H111.75V4.56055H112.51V3.80078H114.79V5.32031Z" fill="black"/>
</svg>
